<?xml version="1.0" standalone="no"?>
<!DOCTYPE svg PUBLIC "-//W3C//DTD SVG 20010904//EN"
 "http://www.w3.org/TR/2001/REC-SVG-20010904/DTD/svg10.dtd">
<svg version="1.0" xmlns="http://www.w3.org/2000/svg"
 width="181.000000pt" height="31.000000pt" viewBox="0 0 181.000000 31.000000"
 preserveAspectRatio="xMidYMid meet">
<metadata>
Created by potrace 1.10, written by Peter Selinger 2001-2011
</metadata>
<g transform="translate(0.000000,31.000000) scale(0.100000,-0.100000)"
fill="#000000" stroke="none">
<path d="M517 303 c-4 -3 -7 -16 -7 -27 0 -19 5 -21 39 -18 32 3 40 8 44 28 5
27 -20 35 -29 9 -4 -8 -11 -15 -16 -15 -6 0 -8 7 -4 15 5 15 -14 21 -27 8z"/>
<path d="M85 218 c-10 -30 -35 -189 -31 -196 2 -4 19 -7 38 -6 32 1 33 2 46
64 14 71 25 90 55 90 18 0 19 -4 12 -57 -13 -100 -14 -96 25 -96 35 -1 35 0
50 64 18 77 25 89 52 89 19 0 20 -4 14 -57 -4 -32 -8 -66 -9 -77 -2 -15 5 -19
31 -20 41 -1 46 7 61 103 10 65 10 76 -5 92 -21 23 -72 25 -102 3 -21 -15 -25
-15 -41 0 -22 20 -70 21 -99 0 -20 -14 -22 -14 -22 0 0 20 -68 23 -75 4z m60
-48 c-8 -9 -17 -35 -21 -58 -4 -23 -11 -45 -15 -48 -5 -3 -6 -10 -3 -16 4 -6
1 -9 -7 -6 -17 6 -23 33 -13 56 4 9 6 27 5 40 -2 13 3 30 9 38 7 7 9 14 4 15
-5 0 0 4 11 8 27 11 48 -9 30 -29z m126 23 c11 -13 -17 -153 -31 -153 -11 0
-20 42 -12 54 3 6 5 20 4 31 -6 49 -13 65 -30 65 -14 0 -15 2 -2 10 20 12 59
9 71 -7z m137 -27 c2 -21 0 -46 -4 -55 -4 -9 -6 -23 -6 -31 3 -21 -14 -44 -26
-36 -5 3 -7 30 -5 61 4 43 1 61 -11 74 -20 22 -10 33 24 29 21 -3 25 -9 28
-42z"/>
<path d="M505 220 c-5 -8 -33 -148 -38 -190 -2 -11 8 -15 38 -14 l39 1 18 94
c9 52 17 100 17 107 1 14 -65 17 -74 2z m43 -49 c2 -12 0 -30 -3 -39 -4 -9 -9
-32 -11 -51 -4 -39 -8 -45 -27 -38 -11 4 -12 15 -5 54 13 74 15 87 17 96 2 18
26 0 29 -22z"/>
<path d="M634 193 c-3 -21 -12 -67 -19 -103 -8 -36 -12 -67 -10 -69 3 -2 20
-5 39 -6 38 -2 39 -1 51 70 9 52 30 85 57 85 21 0 47 25 48 48 0 18 -50 15
-72 -5 -17 -15 -18 -15 -18 0 0 13 -9 17 -35 17 -32 0 -35 -3 -41 -37z m65 3
c8 -10 7 -21 -5 -45 -9 -18 -18 -50 -21 -72 -4 -28 -10 -39 -23 -39 -19 0 -19
4 -6 85 13 79 30 101 55 71z"/>
<path d="M865 211 c-17 -10 -39 -30 -48 -44 -22 -34 -22 -99 1 -126 33 -41
135 -40 188 2 l29 22 -35 5 c-19 3 -47 1 -61 -4 -31 -11 -59 -2 -59 18 0 12
17 16 83 18 l82 3 3 37 c5 57 -30 88 -100 88 -34 0 -64 -7 -83 -19z m156 -35
c0 -6 2 -18 4 -28 2 -10 -5 -18 -21 -21 -13 -2 -24 0 -24 4 0 5 5 9 10 9 6 0
4 14 -4 34 l-15 35 25 -11 c13 -6 24 -16 25 -22z m-146 -21 c-1 -20 -5 -39 -9
-42 -9 -10 -7 -53 3 -53 5 0 11 -6 14 -14 5 -12 1 -13 -23 -5 -26 10 -40 33
-40 71 0 13 45 78 54 78 2 0 2 -16 1 -35z m83 23 c24 -24 13 -38 -28 -38 -43
0 -55 20 -22 39 23 14 36 13 50 -1z"/>
<path d="M1104 193 c-3 -21 -12 -67 -19 -103 -8 -35 -12 -67 -10 -70 4 -7 59
-5 72 3 6 4 13 28 17 55 7 58 29 92 59 92 23 0 52 34 42 50 -10 16 -47 12 -67
-7 -17 -15 -18 -15 -18 0 0 13 -9 17 -35 17 -32 0 -35 -3 -41 -37z m70 -24
c-15 -17 -35 -79 -36 -109 0 -9 -9 -17 -20 -17 -15 -2 -18 2 -13 15 4 9 9 42
11 72 5 63 24 87 55 67 16 -10 17 -13 3 -28z"/>
<path d="M1333 210 c-100 -61 -73 -200 39 -200 52 0 101 27 128 72 33 54 21
115 -27 137 -37 17 -104 13 -140 -9z m142 -26 c19 -17 23 -29 18 -55 -5 -33
-50 -83 -86 -95 -33 -11 -86 6 -104 32 -22 35 -3 94 40 119 l31 19 -22 -28
c-46 -59 -17 -147 44 -132 25 7 64 36 48 36 -5 0 -3 5 4 12 18 18 14 62 -7 90
-26 33 -1 34 34 2z m-47 -16 c19 -19 14 -55 -12 -85 -20 -23 -28 -26 -43 -17
-24 15 -28 59 -8 90 17 26 44 31 63 12z"/>
<path d="M1567 83 c-3 -10 -8 -28 -12 -40 -5 -19 -2 -23 14 -23 11 0 23 4 26
10 4 6 13 5 25 -2 15 -10 22 -10 32 0 9 9 8 12 -7 13 -17 0 -17 2 4 10 19 8
21 12 11 24 -11 14 -15 14 -32 -2 -19 -17 -20 -17 -17 2 5 27 -37 34 -44 8z
m23 -33 c0 -5 -5 -10 -11 -10 -5 0 -7 5 -4 10 3 6 8 10 11 10 2 0 4 -4 4 -10z"/>
<path d="M1684 88 c-14 -23 -13 -59 2 -65 21 -8 32 6 14 18 -13 8 -13 11 1 22
9 6 14 18 12 25 -6 15 -20 16 -29 0z"/>
<path d="M1743 82 c-6 -4 -15 -20 -19 -35 -6 -26 -4 -28 17 -25 16 2 25 11 27
27 4 27 -8 43 -25 33z"/>
</g>
</svg>
